<svg width="18" height="40" viewBox="0 0 18 40" fill="none" xmlns="http://www.w3.org/2000/svg">
<path d="M7.91125 5.24C9.24458 5.24 10.2579 5.4 10.9513 5.72C11.6446 6.01333 12.2579 6.34667 12.7913 6.72C13.1113 6.90667 13.3646 7.05333 13.5513 7.16C13.7646 7.24 13.9646 7.28 14.1513 7.28C14.4179 7.28 14.6046 7.13333 14.7113 6.84C14.8446 6.54666 14.9513 6.10666 15.0313 5.52H15.9513C15.9246 5.97333 15.8846 6.52 15.8313 7.16C15.8046 7.77333 15.7779 8.6 15.7513 9.64C15.7513 10.6533 15.7513 12 15.7513 13.68H14.8313C14.7513 12.4 14.4713 11.1733 13.9913 10C13.5113 8.82666 12.8046 7.86666 11.8713 7.12C10.9646 6.37333 9.76458 6 8.27125 6C6.85792 6 5.68458 6.42666 4.75125 7.28C3.84458 8.13333 3.39125 9.25333 3.39125 10.64C3.39125 11.5467 3.56458 12.3333 3.91125 13C4.28458 13.6667 4.77792 14.28 5.39125 14.84C6.03125 15.3733 6.75125 15.8933 7.55125 16.4C8.35125 16.88 9.20458 17.4 10.1113 17.96C11.4979 18.8133 12.7246 19.6667 13.7913 20.52C14.8846 21.3467 15.7379 22.2667 16.3513 23.28C16.9913 24.2933 17.3113 25.52 17.3113 26.96C17.3113 28.6667 16.9246 30.08 16.1513 31.2C15.3779 32.32 14.3513 33.16 13.0713 33.72C11.7913 34.28 10.3779 34.56 8.83125 34.56C7.41792 34.56 6.29792 34.4 5.47125 34.08C4.64458 33.76 3.93792 33.4267 3.35125 33.08C3.03125 32.8667 2.76458 32.72 2.55125 32.64C2.33792 32.56 2.15125 32.52 1.99125 32.52C1.72458 32.52 1.52458 32.6667 1.39125 32.96C1.28458 33.2533 1.19125 33.6933 1.11125 34.28H0.19125C0.244583 33.72 0.27125 33.0667 0.27125 32.32C0.297917 31.5467 0.31125 30.5467 0.31125 29.32C0.337917 28.0933 0.35125 26.5467 0.35125 24.68H1.27125C1.35125 25.88 1.53792 27.0267 1.83125 28.12C2.12458 29.2133 2.55125 30.1867 3.11125 31.04C3.67125 31.8933 4.39125 32.56 5.27125 33.04C6.17792 33.52 7.27125 33.76 8.55125 33.76C9.43125 33.76 10.2579 33.5867 11.0313 33.24C11.8313 32.8667 12.4846 32.2933 12.9913 31.52C13.4979 30.72 13.7513 29.6933 13.7513 28.44C13.7513 27.64 13.6046 26.9067 13.3113 26.24C13.0179 25.5733 12.5913 24.96 12.0313 24.4C11.4713 23.84 10.8046 23.2933 10.0313 22.76C9.28458 22.2267 8.44458 21.68 7.51125 21.12C6.25792 20.3467 5.08458 19.56 3.99125 18.76C2.89792 17.96 2.01792 17.04 1.35125 16C0.71125 14.9333 0.39125 13.6533 0.39125 12.16C0.39125 10.5867 0.737917 9.29333 1.43125 8.28C2.15125 7.24 3.08458 6.48 4.23125 6C5.37792 5.49333 6.60458 5.24 7.91125 5.24ZM7.31125 0.399999V39.28H6.51125V0.399999H7.31125ZM10.6713 0.399999V39.28H9.87125V0.399999H10.6713Z" fill="white"/>
</svg>
